PathFileType	4	(X/Y/Z)	C:\Users\WrightLab\Desktop\Jo\P3_14.trc
DataRate	CameraRate	NumFrames	NumMarkers	Units	OrigDataRate	OrigDataStartFrame	OrigNumFrames
100.00	100.00	       12	19	mm	100.00	337	       672
Frame#	Time	Headset_Front			Headset_Back			Headset_Left			Headset_Right			Left_Shoulder			Right_Shoulder			Sternum			C7			Left Elbow			Right Elbow			Left Wrist			Right Wrist			Left ASIS			Right ASIS			S2			Left Knee			Right Knee			Left Ankle			Right Ankle			
		X1	Y1	Z1	X2	Y2	Z2	X3	Y3	Z3	X4	Y4	Z4	X5	Y5	Z5	X6	Y6	Z6	X7	Y7	Z7	X8	Y8	Z8	X9	Y9	Z9	X10	Y10	Z10	X11	Y11	Z11	X12	Y12	Z12	X13	Y13	Z13	X14	Y14	Z14	X15	Y15	Z15	X16	Y16	Z16	X17	Y17	Z17	X18	Y18	Z18	X19	Y19	Z19	

337	3.360	-126.58321	1513.98840	856.07672							-256.85382	1545.37854	785.06781	-17.78360	1361.16125	543.71588	-341.94449	1344.59912	706.70953	-106.67119	1246.03064	742.90271	-211.81641	1404.52344	580.07983	55.86350	1029.49146	513.64526	-395.30200	996.08069	737.46716	100.84037	849.73779	613.07654	-326.04358	823.30219	873.09814	-6.68334	883.85944	675.31482	-220.97853	888.35846	807.92108	-221.06792	949.87476	550.70172	69.51188	476.72427	714.07172	-183.31702	455.29022	763.76538	-83.61876	247.52719	520.96082	-184.06389	121.21816	706.96875	
338	3.370	-122.89658	1513.70227	863.49176							-253.16028	1545.16821	792.36926	-12.47271	1361.84326	551.75299	-337.64059	1344.82080	712.38379	-102.88409	1245.47400	749.12561	-207.18436	1404.65723	585.84393	60.91071	1030.07715	520.69043	-390.88406	996.18945	743.92419	106.08167	850.80780	621.09711	-323.50656	824.76917	879.28943	-3.18092	884.92517	683.45941	-217.51518	888.41162	811.51373	-216.28954	950.51685	555.90833	77.81906	480.78714	729.37738	-182.09384	454.82681	766.55145	-68.50194	243.47917	539.65155	-184.16075	121.50101	707.42725	
339	3.380	-119.51727	1513.31421	871.04810							-249.26195	1545.06665	799.22461	-8.12840	1362.50964	559.18158	-333.40900	1345.24353	718.84229	-98.48409	1246.24634	756.37079	-202.40228	1405.07166	593.41046	66.59478	1030.82092	528.29803	-385.62613	996.38831	750.14484	111.43071	851.25812	628.55786	-319.37091	824.94464	886.20807	1.34476	886.51428	690.75104	-214.36914	888.25592	815.67059	-211.37634	950.28925	562.03931	85.59982	484.65390	744.07758	-181.10321	454.86731	769.43671	-52.45455	240.62932	557.38586	-183.77637	121.42408	707.83472	
340	3.390	-115.78612	1512.82617	878.51910							-245.43224	1544.85913	806.23016	-2.94178	1362.12720	566.69257	-329.19547	1345.37817	725.19385	-94.13110	1245.95776	762.95770	-197.52211	1405.61792	599.92743	72.11658	1031.26099	535.93689	-382.18231	996.78723	756.64612	116.81928	852.25427	636.24353	-315.22748	825.57904	892.72375	5.05133	887.98730	698.03113	-211.98192	888.19159	822.93414	-206.12346	950.73077	567.12219	92.23071	488.49393	759.00482	-178.95232	454.55228	772.05798	-37.23382	235.30373	577.49261	-181.81387	121.06625	709.26672	
341	3.400	-112.10603	1512.28333	885.99341							-241.34259	1544.68518	813.26965	1.99369	1362.96643	574.63855	-324.95831	1345.52869	730.97028	-90.51244	1246.09753	770.09253	-192.73521	1405.73645	607.34357	77.83407	1032.13660	543.47186	-377.14053	996.64911	762.75299	122.82501	852.82074	644.35095	-310.40408	826.22302	900.12610	9.25327	888.19727	705.78119	-209.28616	887.71680	828.89221	-201.54115	950.80756	573.53809	99.13963	492.54889	772.80243	-177.07910	453.66626	774.77405	-21.60093	230.48550	596.65063	-182.99556	121.90150	708.78796	
342	3.410	-108.52294	1511.81763	893.54199							-237.04509	1543.65417	819.88318	7.11832	1363.41858	581.88892	-320.46213	1345.82410	737.01105	-86.62833	1246.04041	777.07214	-187.86221	1406.07996	613.68573	83.49482	1032.79858	551.90576	-372.67328	996.77844	768.61707	127.90666	853.03430	652.27625	-306.43716	826.78613	906.66553	14.05571	889.31946	713.71655	-205.97099	887.87164	833.79218	-197.00400	950.91473	578.81604	104.63736	495.46881	784.90460	-175.92567	453.78375	778.86621	-4.70918	224.78052	617.60138	-182.25310	121.93130	709.45123	
343	3.420	-104.54567	1511.14661	900.94330							-233.23999	1543.67590	827.31403	12.35404	1363.51489	590.23303	-316.22565	1345.96265	743.22272	-82.20542	1245.85327	784.47559	-182.70105	1406.64941	620.56567	89.17843	1033.25208	559.66943	-369.21115	997.12628	774.72583	133.30348	854.21021	660.68604	-302.56290	827.84576	913.46936	14.76359	888.05225	720.09888	-204.06458	887.93958	840.79230	-191.85654	950.71674	584.66211	109.67075	498.89481	797.76715	-173.71240	453.30984	781.23889	10.53112	218.40070	637.70642	-181.53632	121.53559	709.79620	
344	3.430	-101.16193	1510.49707	908.56561							-228.99243	1543.48950	834.24646	17.23337	1363.56140	597.88770	-311.84778	1345.93689	749.11627	-78.03753	1245.85254	791.60895	-177.71188	1406.40344	626.68488	94.88200	1033.19922	567.69373	-364.00330	997.17914	780.61798	138.83328	854.09735	668.71326	-297.87656	827.85132	920.53613	19.85308	888.99957	727.59167	-199.93359	886.44226	846.18494	-186.64529	950.64008	590.37970	114.21886	501.38818	809.00696	-171.75562	452.67426	784.18701	26.25221	212.05333	658.94281	-181.07382	121.53001	710.25262	
345	3.440	-97.11800	1509.97571	915.99628							-225.09782	1543.02966	841.32977	22.27501	1363.91504	605.88660	-307.65186	1346.12256	755.16840	-74.28402	1245.53235	798.68927	-172.51237	1406.66089	634.31281	100.29134	1033.37390	575.10535	-359.84436	996.87720	786.68341	144.47179	854.55939	677.33936	-294.46573	828.11096	926.72498	23.58726	888.94751	734.79138	-196.84467	886.17188	851.09015	-181.28421	950.55725	596.19495	118.53497	503.10236	819.47968	-169.82114	452.68164	787.29266	41.87362	204.84917	681.18610	-180.30701	121.98324	710.46399	
346	3.450	-93.48194	1509.60620	923.65863							-220.91135	1542.48120	848.52838	27.28001	1363.52039	613.73242	-303.42355	1345.91357	761.56451	-70.24828	1245.36292	806.17609	-167.24884	1405.86060	640.60095	106.09415	1033.67920	582.93970	-355.70786	996.44427	792.82562	149.37990	854.68103	685.41388	-289.85208	828.11731	933.68085	27.59369	888.42310	742.67108	-195.24110	885.12677	855.02246	-176.89146	950.72369	601.83838	122.20716	504.72540	829.82001	-167.94502	452.51608	790.22516	56.58555	198.16722	703.11041	-180.11673	122.05213	710.55853	
347	3.460	-89.43738	1508.86353	931.25806							-216.63377	1542.04785	855.78040	32.61793	1363.08069	621.68298	-298.76566	1345.69739	767.58380	-66.35546	1245.06470	813.28363	-162.70686	1406.00085	647.33984	111.79679	1033.59265	591.28955	-351.59299	996.58783	799.09961	154.55836	855.13080	694.32568	-285.68237	828.74957	940.20801	31.95793	888.41553	750.13287	-192.69173	883.86127	858.71124	-171.48590	950.17694	607.52228	125.17482	505.12872	839.58575	-165.21616	451.18390	793.48712	71.39142	191.55811	725.69647	-179.89948	122.03789	710.86047	
348	3.470	-85.75110	1508.43018	938.93774							-212.31836	1541.48804	862.83105	38.00730	1362.90137	630.00757	-294.73938	1345.48096	773.66119	-61.79647	1244.03015	820.95129	-157.72809	1405.79492	656.09711	116.91085	1033.19006	599.29871	-347.22427	995.93616	804.58862	159.66458	855.03870	702.72552	-281.19785	828.26648	946.22662	35.90876	888.26080	757.37329	-190.21989	882.70966	864.36005	-165.95465	950.50311	613.71564	128.39503	505.62985	847.77765	-164.32066	451.34277	797.12994	85.90633	184.87933	749.31201	-179.75497	122.39366	711.44202	
